<svg width="16" height="16" viewBox="0 0 16 16" fill="none" xmlns="http://www.w3.org/2000/svg">
<path d="M9.09131 14.9974C7.98939 15.1696 6.8624 15.0791 5.80208 14.7333C4.74175 14.3875 3.77806 13.7963 2.98944 13.0077C2.20081 12.219 1.60956 11.2553 1.26379 10.195C0.918022 9.13468 0.827517 8.00769 0.999643 6.90578C0.565253 6.07954 0.406522 5.13602 0.546651 4.21312C0.686779 3.29023 1.11842 2.43635 1.77848 1.77629C2.43855 1.11622 3.29243 0.684582 4.21532 0.544453C5.13822 0.404325 6.08173 0.563056 6.90798 0.997446C8.00989 0.82532 9.13688 0.915824 10.1972 1.26159C11.2575 1.60736 12.2212 2.19862 13.0099 2.98724C13.7985 3.77586 14.3897 4.73955 14.7355 5.79988C15.0813 6.86021 15.1718 7.9872 14.9996 9.08911C15.434 9.91535 15.5928 10.8589 15.4526 11.7818C15.3125 12.7047 14.8809 13.5585 14.2208 14.2186C13.5607 14.8787 12.7069 15.3103 11.784 15.4504C10.8611 15.5906 9.91755 15.4318 9.09131 14.9974ZM8.04298 12.2941H8.00964C10.403 12.2941 11.5955 11.1391 11.5955 9.59161C11.5955 8.59328 11.1363 7.53244 9.32381 7.12661L7.67131 6.75995C7.04214 6.61661 6.31964 6.42661 6.31964 5.83078C6.31964 5.23494 6.83631 4.81995 7.75631 4.81995C9.61464 4.81995 9.44548 6.09328 10.3655 6.09328C10.8455 6.09328 11.2763 5.80828 11.2763 5.31828C11.2763 4.17661 9.44548 3.31828 7.89631 3.31828C6.21214 3.31828 4.41881 4.03411 4.41881 5.93828C4.41881 6.85328 4.74714 7.82995 6.55214 8.28244L8.79298 8.84161C9.47298 9.00994 9.64131 9.39078 9.64131 9.73494C9.64131 10.3074 9.07131 10.8666 8.04298 10.8666C6.02881 10.8666 6.31131 9.31911 5.23131 9.31911C4.74798 9.31911 4.39548 9.65078 4.39548 10.1283C4.39548 11.0566 5.52214 12.2933 8.04298 12.2933V12.2941Z" fill="#b0b4b9"/>
</svg>
