<svg width="18" height="18" viewBox="0 0 18 18" fill="none" xmlns="http://www.w3.org/2000/svg">
<path d="M15.667 8.99764C15.6668 7.51171 15.1702 6.06842 14.2561 4.89697C13.3419 3.72551 12.0626 2.89304 10.6213 2.53175C9.17992 2.17046 7.6592 2.30106 6.30056 2.90281C4.94193 3.50456 3.82327 4.54297 3.12223 5.85313C2.42119 7.1633 2.17796 8.67012 2.43115 10.1343C2.68435 11.5985 3.41946 12.9362 4.51975 13.9348C5.62004 14.9335 7.02244 15.536 8.50425 15.6465C9.98606 15.7571 11.4623 15.3695 12.6987 14.5451L13.6237 15.9318C12.2555 16.8466 10.6461 17.3336 9.00033 17.331C4.39783 17.331 0.666992 13.6001 0.666992 8.99764C0.666992 4.39514 4.39783 0.664307 9.00033 0.664307C13.6028 0.664307 17.3337 4.39514 17.3337 8.99764V10.2476C17.3337 10.8716 17.1337 11.4791 16.763 11.981C16.3923 12.4829 15.8704 12.8527 15.2739 13.036C14.6775 13.2193 14.038 13.2065 13.4494 12.9996C12.8608 12.7926 12.3541 12.4023 12.0037 11.886C11.4475 12.4643 10.7361 12.8697 9.95509 13.0536C9.17405 13.2374 8.35655 13.1918 7.60079 12.9223C6.84504 12.6528 6.18319 12.1707 5.69475 11.5342C5.20631 10.8976 4.91206 10.1335 4.84736 9.33372C4.78266 8.53396 4.95025 7.73252 5.33001 7.0257C5.70977 6.31888 6.28554 5.73674 6.98813 5.34922C7.69073 4.96171 8.49028 4.7853 9.29071 4.84119C10.0911 4.89709 10.8584 5.1829 11.5003 5.66431H13.167V10.2476C13.167 10.5792 13.2987 10.8971 13.5331 11.1315C13.7675 11.3659 14.0855 11.4976 14.417 11.4976C14.7485 11.4976 15.0665 11.3659 15.3009 11.1315C15.5353 10.8971 15.667 10.5792 15.667 10.2476V8.99764ZM9.00033 6.49764C8.33728 6.49764 7.7014 6.76103 7.23256 7.22987C6.76372 7.69871 6.50033 8.3346 6.50033 8.99764C6.50033 9.66068 6.76372 10.2966 7.23256 10.7654C7.7014 11.2342 8.33728 11.4976 9.00033 11.4976C9.66337 11.4976 10.2993 11.2342 10.7681 10.7654C11.2369 10.2966 11.5003 9.66068 11.5003 8.99764C11.5003 8.3346 11.2369 7.69871 10.7681 7.22987C10.2993 6.76103 9.66337 6.49764 9.00033 6.49764Z" fill="#B3B9BF"/>
</svg>
