<svg width="14" height="4" viewBox="0 0 14 4" fill="none" xmlns="http://www.w3.org/2000/svg">
<path fill-rule="evenodd" clip-rule="evenodd" d="M8.66618 1.99748C8.66618 2.91795 7.91999 3.66414 6.99951 3.66414C6.07904 3.66414 5.33285 2.91795 5.33285 1.99748C5.33285 1.077 6.07904 0.330811 6.99951 0.330811C7.91999 0.330811 8.66618 1.077 8.66618 1.99748ZM3.66634 1.99752C3.66634 2.91799 2.92015 3.66418 1.99967 3.66418C1.0792 3.66418 0.333008 2.91799 0.333008 1.99752C0.333008 1.07704 1.0792 0.330851 1.99967 0.330851C2.92015 0.330851 3.66634 1.07704 3.66634 1.99752ZM11.9995 3.66414C12.92 3.66414 13.6662 2.91795 13.6662 1.99748C13.6662 1.077 12.92 0.330811 11.9995 0.330811C11.079 0.330811 10.3328 1.077 10.3328 1.99748C10.3328 2.91795 11.079 3.66414 11.9995 3.66414Z" fill="#A6A6A6"/>
</svg>
