<svg width="17" height="16" viewBox="0 0 17 16" fill="none" xmlns="http://www.w3.org/2000/svg">
<path d="M3.78353 2.16433C3.78331 2.60635 3.6075 3.03019 3.29478 3.34259C2.98207 3.655 2.55806 3.83038 2.11603 3.83016C1.674 3.82994 1.25017 3.65413 0.937762 3.34142C0.625357 3.0287 0.449975 2.60469 0.450196 2.16266C0.450417 1.72063 0.626223 1.2968 0.93894 0.984392C1.25166 0.671988 1.67567 0.496605 2.1177 0.496826C2.55972 0.497047 2.98356 0.672854 3.29596 0.985571C3.60837 1.29829 3.78375 1.7223 3.78353 2.16433ZM3.83353 5.06433H0.500195V15.4977H3.83353V5.06433ZM9.1002 5.06433H5.78353V15.4977H9.06686V10.0227C9.06686 6.97266 13.0419 6.68933 13.0419 10.0227V15.4977H16.3335V8.88933C16.3335 3.74766 10.4502 3.93933 9.06686 6.46433L9.1002 5.06433Z" fill="#b0b4b9"/>
</svg>
