<svg width="16" height="16" viewBox="0 0 16 16" fill="none" xmlns="http://www.w3.org/2000/svg">
<path d="M15.5 11.6809V14.6276C15.5001 14.8385 15.4202 15.0417 15.2763 15.1961C15.1325 15.3504 14.9355 15.4445 14.725 15.4592C14.3608 15.4842 14.0633 15.4976 13.8333 15.4976C6.46917 15.4976 0.5 9.52839 0.5 2.16423C0.5 1.93423 0.5125 1.63673 0.538333 1.27256C0.553102 1.0621 0.647151 0.865068 0.801503 0.721233C0.955855 0.577398 1.15902 0.497463 1.37 0.497559H4.31667C4.42003 0.497454 4.51975 0.535774 4.59644 0.605076C4.67313 0.674377 4.72133 0.769711 4.73167 0.872559C4.75083 1.06423 4.76833 1.21673 4.785 1.33256C4.95061 2.48833 5.29 3.61242 5.79167 4.66673C5.87083 4.83339 5.81917 5.03256 5.66917 5.13923L3.87083 6.42423C4.97038 8.98627 7.01212 11.028 9.57417 12.1276L10.8575 10.3326C10.91 10.2592 10.9865 10.2066 11.0737 10.1839C11.161 10.1612 11.2535 10.1699 11.335 10.2084C12.3892 10.7091 13.513 11.0477 14.6683 11.2126C14.7842 11.2292 14.9367 11.2476 15.1267 11.2659C15.2294 11.2764 15.3245 11.3247 15.3936 11.4014C15.4628 11.478 15.501 11.5777 15.5008 11.6809H15.5Z" fill="#b0b4b9"/>
</svg>
